<svg width="50" height="51" viewBox="0 0 50 51" fill="none" xmlns="http://www.w3.org/2000/svg">
    <g id="Group 143">
        <path id="Vector 3099 (Stroke)" opacity="0.4" fill-rule="evenodd" clip-rule="evenodd" d="M38.2507 22.584C35.6733 22.584 33.584 24.6733 33.584 27.2507V40.084C33.584 45.883 28.883 50.584 23.084 50.584C17.285 50.584 12.584 45.883 12.584 40.084V27.834C12.584 26.8675 13.3675 26.084 14.334 26.084C15.3005 26.084 16.084 26.8675 16.084 27.834V40.084C16.084 43.95 19.218 47.084 23.084 47.084C26.95 47.084 30.084 43.95 30.084 40.084V27.2507C30.084 22.7403 33.7403 19.084 38.2507 19.084C42.761 19.084 46.4173 22.7403 46.4173 27.2507V30.1673C46.4173 31.1338 45.6338 31.9173 44.6673 31.9173C43.7008 31.9173 42.9173 31.1338 42.9173 30.1673V27.2507C42.9173 24.6733 40.828 22.584 38.2507 22.584Z" fill="#4A92DF"/>
        <path id="Ellipse 1244" d="M49.3333 34.8337C49.3333 37.411 47.244 39.5003 44.6667 39.5003C42.0893 39.5003 40 37.411 40 34.8337C40 32.2563 42.0893 30.167 44.6667 30.167C47.244 30.167 49.3333 32.2563 49.3333 34.8337Z" fill="#4A92DF"/>
        <path id="Subtract" fill-rule="evenodd" clip-rule="evenodd" d="M5.58366 2.99219C2.8904 3.75394 0.916992 6.23017 0.916992 9.16732V16.1673C0.916992 23.5771 6.92384 29.584 14.3337 29.584C21.7435 29.584 27.7503 23.5771 27.7503 16.1673V9.16732C27.7503 6.23017 25.7769 3.75394 23.0837 2.99219V6.83377C23.7921 7.36589 24.2503 8.21309 24.2503 9.16732V16.1673C24.2503 21.6441 19.8105 26.084 14.3337 26.084C8.85684 26.084 4.41699 21.6441 4.41699 16.1673V9.16732C4.41699 8.21309 4.87523 7.36589 5.58366 6.83377V2.99219Z" fill="#4A92DF"/>
        <path id="Vector 3097 (Stroke)" opacity="0.4" fill-rule="evenodd" clip-rule="evenodd" d="M21.334 0.416992C22.3005 0.416992 23.084 1.20049 23.084 2.16699V6.83366C23.084 7.80016 22.3005 8.58366 21.334 8.58366C20.3675 8.58366 19.584 7.80016 19.584 6.83366V2.16699C19.584 1.20049 20.3675 0.416992 21.334 0.416992Z" fill="#4A92DF"/>
        <path id="Vector 3098 (Stroke)" opacity="0.4" fill-rule="evenodd" clip-rule="evenodd" d="M7.33398 0.416992C8.30048 0.416992 9.08398 1.20049 9.08398 2.16699V6.83366C9.08398 7.80016 8.30048 8.58366 7.33398 8.58366C6.36749 8.58366 5.58398 7.80016 5.58398 6.83366V2.16699C5.58398 1.20049 6.36749 0.416992 7.33398 0.416992Z" fill="#4A92DF"/>
    </g>
</svg>
