<svg width="30" height="27" viewBox="0 0 30 27" fill="none" xmlns="http://www.w3.org/2000/svg">
<g id="inbox">
<path id="Form_619" fill-rule="evenodd" clip-rule="evenodd" d="M6.76904 26.3167C2.91003 26.3167 0 23.1817 0 19.0277V11.4687C0 7.31366 2.91003 4.18066 6.76904 4.18066H17.608C19.495 4.20421 21.2888 5.00436 22.567 6.39266C23.8446 7.79103 24.504 9.64565 24.396 11.5367V19.0287C24.4902 20.8979 23.8307 22.7269 22.5649 24.1057C21.29 25.491 19.5015 26.2909 17.6189 26.3177L6.76904 26.3167ZM2.30005 11.4687V19.0277C2.30005 21.9097 4.17908 23.9997 6.76904 23.9997H17.608C18.8541 23.979 20.037 23.4475 20.88 22.5297C21.7319 21.5957 22.1718 20.3578 22.1 19.0957V11.4687C22.1847 10.185 21.7448 8.92196 20.881 7.96867C20.0345 7.04767 18.8466 6.51536 17.5959 6.49667H6.7699C4.1781 6.49466 2.29907 8.58266 2.29907 11.4687L2.30005 11.4687ZM9.93201 16.6687L4.97803 12.6867C4.48206 12.2852 4.40137 11.5593 4.79712 11.0587C4.98657 10.8194 5.26355 10.6657 5.56677 10.6315C5.86987 10.5973 6.17419 10.6856 6.41199 10.8767L11.358 14.8527C11.6018 15.0468 11.9043 15.1526 12.2159 15.1527C12.5328 15.1526 12.8402 15.0451 13.088 14.8477L17.98 10.8817C18.1829 10.7152 18.4374 10.6243 18.7 10.6247C19.0504 10.6239 19.382 10.7834 19.6001 11.0577C19.9971 11.557 19.9185 12.2827 19.424 12.6857L14.5239 16.6617C13.1838 17.7334 11.2811 17.7372 9.93689 16.6707L9.93201 16.6687Z" fill="#6F767E"/>
<g id="Ellipse_2_Kopie">
<circle id="Circle" cx="22.5332" cy="7.18262" r="4" fill="#F8866D"/>
<circle id="Circle_2" cx="22.5332" cy="7.18262" r="5.5" stroke="white" stroke-width="3" stroke-linejoin="round"/>
</g>
</g>
</svg>
