<svg width="26" height="30" viewBox="0 0 26 30" fill="none" xmlns="http://www.w3.org/2000/svg">
<g id="notification">
<path id="icon-3" fill-rule="evenodd" clip-rule="evenodd" d="M17.2493 20.7528V15.7528C17.1888 12.4375 14.4841 9.78142 11.1682 9.78141C7.85229 9.78141 5.14758 12.4375 5.08716 15.7528L5.08728 20.7528C5.08838 21.4559 4.90125 22.1465 4.54529 22.7528L17.7922 22.7528C17.4359 22.1465 17.2484 21.456 17.2493 20.7528ZM21.3032 24.7528H1.0332C0.675903 24.7528 0.345825 24.5622 0.167236 24.2528C-0.0114746 23.9434 -0.0114746 23.5622 0.167236 23.2528C0.345825 22.9434 0.675903 22.7528 1.0332 22.7528C2.14502 22.76 3.05237 21.8647 3.06006 20.7528L3.06018 15.7528C3.13074 11.3252 6.74011 7.77295 11.1682 7.77295C15.5963 7.77295 19.2057 11.3252 19.2761 15.7528V20.7528C19.2795 21.2868 19.495 21.7976 19.8752 22.1727C20.2554 22.5478 20.769 22.7565 21.3031 22.7528C21.6604 22.7528 21.9906 22.9433 22.1692 23.2527C22.3479 23.5621 22.3479 23.9433 22.1693 24.2527C21.9907 24.5621 21.6605 24.7528 21.3032 24.7528ZM13.7982 28.2528C13.2458 29.1792 12.2468 29.7467 11.1682 29.7467C10.0896 29.7467 9.09058 29.1792 8.53821 28.2528C8.35852 27.9417 8.35962 27.5581 8.54089 27.248C8.72217 26.9379 9.05591 26.7488 9.41516 26.7528H12.9221C13.2811 26.7491 13.6145 26.9383 13.7957 27.2484C13.9767 27.5584 13.9777 27.9418 13.7981 28.2528H13.7982Z" fill="#6F767E"/>
<g id="Ellipse_2">
<circle id="Circle" cx="18.9492" cy="7.75293" r="4" fill="#F8866D"/>
<circle id="Circle_2" cx="18.9492" cy="7.75293" r="5.5" stroke="white" stroke-width="3" stroke-linejoin="round"/>
</g>
</g>
</svg>
